<?xml version="1.0" standalone="no"?>
<!DOCTYPE svg PUBLIC "-//W3C//DTD SVG 20010904//EN"
 "http://www.w3.org/TR/2001/REC-SVG-20010904/DTD/svg10.dtd">
<svg version="1.0" xmlns="http://www.w3.org/2000/svg"
 width="64.000000pt" height="64.000000pt" viewBox="0 0 64.000000 64.000000"
 preserveAspectRatio="xMidYMid meet">
<metadata>
Created by potrace 1.16, written by Peter Selinger 2001-2019
</metadata>
<g transform="translate(0.000000,64.000000) scale(0.100000,-0.100000)"
fill="#000000" stroke="none">
<path d="M86 611 c-13 -14 -16 -32 -14 -67 l3 -49 8 40 c15 74 2 70 232 73
145 2 212 -1 221 -9 10 -8 14 -35 14 -86 0 -65 -3 -76 -19 -80 -10 -3 -23 -14
-28 -26 l-10 -22 -7 23 c-5 16 -15 22 -36 22 -16 0 -32 -4 -35 -10 -4 -6 6
-10 23 -10 23 0 31 -5 36 -25 8 -31 34 -33 41 -2 4 12 16 27 28 32 20 9 22 19
25 94 4 126 15 121 -248 121 -200 0 -218 -1 -234 -19z"/>
<path d="M90 330 c-22 -22 -26 -69 -10 -100 8 -15 5 -24 -14 -43 -25 -25 -41
-89 -34 -142 5 -48 24 -39 20 9 -5 63 14 113 48 131 81 42 147 -21 138 -131
-2 -26 1 -43 7 -41 5 2 11 26 13 53 4 57 24 84 62 84 38 0 58 -27 62 -84 l3
-48 110 0 110 0 3 28 c7 52 -9 116 -34 141 -19 19 -22 28 -14 43 30 57 -4 120
-65 120 -63 0 -93 -59 -64 -124 10 -22 8 -28 -17 -49 -29 -26 -64 -27 -44 -1
21 24 8 77 -22 94 -25 13 -31 13 -55 0 -31 -17 -44 -70 -23 -94 8 -10 7 -15
-3 -19 -8 -3 -26 8 -40 25 -21 23 -25 34 -17 48 30 57 -4 120 -65 120 -22 0
-43 -8 -55 -20z"/>
</g>
</svg>
